<svg width="27" height="20" viewBox="0 0 27 20" fill="none" xmlns="http://www.w3.org/2000/svg">
<path d="M12.9077 15.5723V19H3.56396V15.5723H12.9077ZM5.15088 0.515625V19H0.694824V0.515625H5.15088ZM21.7183 15.5469V9.88477C21.7183 9.49544 21.6632 9.16113 21.5532 8.88184C21.4432 8.60254 21.2697 8.38672 21.0327 8.23438C20.7957 8.07357 20.4784 7.99316 20.0806 7.99316C19.759 7.99316 19.4839 8.04818 19.2554 8.1582C19.0269 8.26823 18.8534 8.43327 18.7349 8.65332C18.6164 8.87337 18.5571 9.15267 18.5571 9.49121H14.2788C14.2788 8.85645 14.4185 8.26823 14.6978 7.72656C14.9855 7.17643 15.3918 6.69824 15.9165 6.29199C16.4497 5.88574 17.0845 5.57259 17.8208 5.35254C18.5656 5.12402 19.395 5.00977 20.3091 5.00977C21.4009 5.00977 22.3742 5.19173 23.229 5.55566C24.0923 5.9196 24.7736 6.46549 25.2729 7.19336C25.7723 7.91276 26.022 8.81836 26.022 9.91016V15.5342C26.022 16.4313 26.0728 17.1126 26.1743 17.5781C26.2759 18.0352 26.4198 18.4372 26.606 18.7842V19H22.3149C22.1118 18.5768 21.9595 18.0605 21.8579 17.4512C21.7648 16.8333 21.7183 16.1986 21.7183 15.5469ZM22.2388 10.6084L22.2642 12.8936H20.3726C19.9748 12.8936 19.6362 12.9486 19.3569 13.0586C19.0861 13.1686 18.866 13.321 18.6968 13.5156C18.536 13.7018 18.4175 13.9134 18.3413 14.1504C18.2736 14.3874 18.2397 14.637 18.2397 14.8994C18.2397 15.1533 18.299 15.3818 18.4175 15.585C18.5444 15.7796 18.7137 15.932 18.9253 16.042C19.1369 16.152 19.3739 16.207 19.6362 16.207C20.1102 16.207 20.5122 16.1182 20.8423 15.9404C21.1808 15.7542 21.439 15.5299 21.6167 15.2676C21.7944 15.0052 21.8833 14.7598 21.8833 14.5312L22.8228 16.2832C22.6535 16.6217 22.4588 16.9645 22.2388 17.3115C22.0272 17.6585 21.7606 17.9801 21.439 18.2764C21.1258 18.5641 20.7407 18.8011 20.2837 18.9873C19.8267 19.165 19.2723 19.2539 18.6206 19.2539C17.7743 19.2539 16.9956 19.0804 16.2847 18.7334C15.5822 18.3864 15.0194 17.904 14.5962 17.2861C14.173 16.6598 13.9614 15.9404 13.9614 15.1279C13.9614 14.417 14.0884 13.7822 14.3423 13.2236C14.6047 12.665 14.9982 12.1911 15.5229 11.8018C16.0477 11.4124 16.7163 11.1162 17.5288 10.9131C18.3413 10.71 19.2977 10.6084 20.3979 10.6084H22.2388Z" fill="#37447E"/>
</svg>
